<?xml version="1.0" encoding="UTF-8"?>
<svg version="1.1" xmlns="http://www.w3.org/2000/svg" width="1024" height="1024">
<path d="M0 0 C8.97232811 10.04492858 14.8114848 23.01633914 21 34.875 C22.19794533 37.16214032 23.39720969 39.44857673 24.59794617 41.73425293 C25.33663569 43.14123541 26.07357555 44.54913845 26.8084259 45.95812988 C30.1335668 52.59933231 30.1335668 52.59933231 34.6875 58.375 C35.35742338 60.37391148 36.02341611 62.37414093 36.6875 64.375 C37.91058089 66.92858049 39.16046216 69.44060239 40.46875 71.94921875 C40.8383786 72.66618423 41.2080072 73.38314972 41.58883667 74.12184143 C42.78415993 76.43761021 43.98567527 78.75009965 45.1875 81.0625 C46.0154369 82.66293068 46.84307252 84.26351726 47.67041016 85.86425781 C52.51949738 95.23748417 57.39882606 104.59468577 62.3359375 113.921875 C65.14317332 119.22738173 67.9142018 124.55169794 70.6875 129.875 C74.31786287 136.84157386 77.96006564 143.80155316 81.625 150.75 C87.69416088 162.26657269 93.71250895 173.80929339 99.6875 185.375 C100.33525391 186.62531006 100.33525391 186.62531006 100.99609375 187.90087891 C113.35378236 211.82110977 113.35378236 211.82110977 109.99609375 226.37109375 C106.67058307 236.40328289 101.17807559 243.55439018 91.6875 248.375 C84.21411675 251.41180335 76.49143849 251.83493371 68.52734375 252.19140625 C63.89129605 252.41306875 59.29801369 252.85410062 54.6875 253.375 C54.6875 252.715 54.6875 252.055 54.6875 251.375 C53.27047487 251.51730808 51.8538904 251.66400746 50.4375 251.8125 C49.64859375 251.89371094 48.8596875 251.97492188 48.046875 252.05859375 C45.86385361 252.35134993 43.8101818 252.79564419 41.6875 253.375 C41.6875 253.045 41.6875 252.715 41.6875 252.375 C36.0775 252.375 30.4675 252.375 24.6875 252.375 C24.6875 252.705 24.6875 253.035 24.6875 253.375 C22.27075776 253.40205308 19.8543206 253.42186438 17.4375 253.4375 C16.75558594 253.44587891 16.07367187 253.45425781 15.37109375 253.46289062 C11.94625646 253.47951605 8.98477096 253.22590864 5.6875 252.375 C3.43842848 252.30709325 1.18748395 252.29000016 -1.0625 252.3125 C-2.81820312 252.32603516 -2.81820312 252.32603516 -4.609375 252.33984375 C-5.50140625 252.35144531 -6.3934375 252.36304688 -7.3125 252.375 C-7.3125 252.705 -7.3125 253.035 -7.3125 253.375 C-10.3125 253.375 -13.3125 253.375 -16.3125 253.375 C-17.3025 253.705 -18.2925 254.035 -19.3125 254.375 C-20.3025 253.715 -21.2925 253.055 -22.3125 252.375 C-24.59898848 252.13392674 -24.59898848 252.13392674 -27 252.25 C-27.80824219 252.26804687 -28.61648438 252.28609375 -29.44921875 252.3046875 C-30.06410156 252.32789063 -30.67898438 252.35109375 -31.3125 252.375 C-31.6425 253.035 -31.9725 253.695 -32.3125 254.375 C-33.31152344 254.3028125 -34.31054688 254.230625 -35.33984375 254.15625 C-36.63019531 254.0634375 -37.92054688 253.970625 -39.25 253.875 C-40.53777344 253.7821875 -41.82554687 253.689375 -43.15234375 253.59375 C-46.20839236 253.38220646 -47.9410512 253.41760253 -51.05859375 253.62890625 C-51.81333984 253.67853516 -52.56808594 253.72816406 -53.34570312 253.77929688 C-54.94493959 253.88452689 -56.54391001 253.99388381 -58.14257812 254.10742188 C-64.08744331 254.48752834 -64.08744331 254.48752834 -66.3125 253.375 C-67.97444453 253.01886903 -69.640951 252.68291692 -71.3125 252.375 C-71.3125 252.705 -71.3125 253.035 -71.3125 253.375 C-72.9625 253.375 -74.6125 253.375 -76.3125 253.375 C-76.3125 253.045 -76.3125 252.715 -76.3125 252.375 C-77.36050781 252.375 -78.40851563 252.375 -79.48828125 252.375 C-84.4296875 252.375 -89.37109375 252.375 -94.3125 252.375 C-94.6425 252.705 -94.9725 253.035 -95.3125 253.375 C-98.5276227 253.43509575 -101.72702186 253.39491703 -104.94140625 253.3359375 C-106.73169855 253.31524048 -108.52240075 253.3415402 -110.3125 253.375 C-110.6425 253.705 -110.9725 254.035 -111.3125 254.375 C-113.00391656 254.28536938 -114.69209602 254.12922324 -116.375 253.9375 C-117.29410156 253.83566406 -118.21320313 253.73382812 -119.16015625 253.62890625 C-119.87042969 253.54511719 -120.58070313 253.46132813 -121.3125 253.375 C-121.3125 253.045 -121.3125 252.715 -121.3125 252.375 C-124.2825 252.375 -127.2525 252.375 -130.3125 252.375 C-130.3125 252.705 -130.3125 253.035 -130.3125 253.375 C-133.6125 253.705 -136.9125 254.035 -140.3125 254.375 C-140.3125 253.715 -140.3125 253.055 -140.3125 252.375 C-146.5825 252.375 -152.8525 252.375 -159.3125 252.375 C-159.3125 252.705 -159.3125 253.035 -159.3125 253.375 C-161.2925 253.375 -163.2725 253.375 -165.3125 253.375 C-165.3125 252.715 -165.3125 252.055 -165.3125 251.375 C-166.58480469 251.4471875 -167.85710937 251.519375 -169.16796875 251.59375 C-181.89580942 252.27788516 -194.56780093 252.49121306 -207.3125 252.375 C-207.3125 252.705 -207.3125 253.035 -207.3125 253.375 C-209.2925 253.375 -211.2725 253.375 -213.3125 253.375 C-213.3125 253.045 -213.3125 252.715 -213.3125 252.375 C-221.5625 252.375 -229.8125 252.375 -238.3125 252.375 C-238.3125 252.705 -238.3125 253.035 -238.3125 253.375 C-243.3125 253.375 -248.3125 253.375 -253.3125 253.375 C-253.3125 253.045 -253.3125 252.715 -253.3125 252.375 C-255.9525 252.375 -258.5925 252.375 -261.3125 252.375 C-261.3125 252.705 -261.3125 253.035 -261.3125 253.375 C-267.64583333 253.375 -273.97916667 253.375 -280.3125 253.375 C-281.64818021 253.69880126 -282.98173011 254.03157551 -284.3125 254.375 C-284.6425 253.715 -284.9725 253.055 -285.3125 252.375 C-285.9725 252.705 -286.6325 253.035 -287.3125 253.375 C-289.6454866 253.41522391 -291.97956666 253.41820247 -294.3125 253.375 C-294.3125 253.045 -294.3125 252.715 -294.3125 252.375 C-294.98716309 252.36041748 -295.66182617 252.34583496 -296.35693359 252.33081055 C-299.46764582 252.25550417 -302.57737969 252.15912156 -305.6875 252.0625 C-306.74839844 252.03994141 -307.80929687 252.01738281 -308.90234375 251.99414062 C-321.35878536 251.57383125 -331.12285592 248.56464408 -340.0625 239.625 C-342.9728942 235.42109727 -345.15063039 230.99807501 -347.3125 226.375 C-347.6425 225.715 -347.9725 225.055 -348.3125 224.375 C-350.09138189 207.50983134 -341.90404492 193.72873956 -334.3125 179.375 C-333.54130195 177.90513922 -332.77044079 176.4351016 -332 174.96484375 C-330.86247772 172.79920023 -329.72222343 170.63513519 -328.57592773 168.47412109 C-324.07648627 159.98143616 -319.70027611 151.42570115 -315.3125 142.875 C-305.73925357 124.22281819 -305.73925357 124.22281819 -301.3125 115.875 C-296.60705835 106.99972944 -292.02564759 98.06125722 -287.4375 89.125 C-280.44854527 75.51378058 -273.41097156 61.92949265 -266.3125 48.375 C-264.71378084 45.32122767 -263.11560187 42.26717709 -261.51879883 39.21240234 C-260.48334057 37.23165079 -259.44676197 35.25148442 -258.40893555 33.27197266 C-255.30493724 27.33601067 -252.30856249 21.36960238 -249.49609375 15.2890625 C-248.3125 13.375 -248.3125 13.375 -245.3125 12.375 C-243.49755859 12.91650391 -243.49755859 12.91650391 -241.4609375 13.8515625 C-240.70087402 14.19034424 -239.94081055 14.52912598 -239.15771484 14.87817383 C-238.34254395 15.24837646 -237.52737305 15.6185791 -236.6875 16 C-199.36812425 32.27533529 -160.06255844 33.10715016 -122.14453125 18.35546875 C-110.40986424 13.62976462 -99.20344514 7.99700842 -88.24511719 1.69555664 C-83.37648722 -1.08293698 -78.43007397 -3.63978917 -73.375 -6.0625 C-72.70130371 -6.39258057 -72.02760742 -6.72266113 -71.33349609 -7.06274414 C-66.98236781 -9.10778513 -62.8352712 -10.29517262 -58.09545898 -11.11743164 C-57.50708252 -11.2849292 -56.91870605 -11.45242676 -56.3125 -11.625 C-55.9825 -12.285 -55.6525 -12.945 -55.3125 -13.625 C-36.47656289 -17.54205745 -14.26239596 -13.25366068 0 0 Z M-100.3125 251.375 C-96.3125 252.375 -96.3125 252.375 -96.3125 252.375 Z M-64.3125 251.375 C-64.3125 251.705 -64.3125 252.035 -64.3125 252.375 C-59.6925 252.375 -55.0725 252.375 -50.3125 252.375 C-50.3125 252.045 -50.3125 251.715 -50.3125 251.375 C-54.9325 251.375 -59.5525 251.375 -64.3125 251.375 Z " fill="#000000" transform="translate(636.3125,633.625)"/>
<path d="M0 0 C25.08718911 -0.07016405 50.17436345 -0.12302442 75.26163101 -0.15543652 C86.91078222 -0.17088781 98.55987237 -0.1919441 110.20898438 -0.22631836 C120.36550493 -0.25627392 130.52198125 -0.27558763 140.67854476 -0.28226548 C146.05349566 -0.28616731 151.42832004 -0.2953009 156.80323029 -0.31719017 C161.86914294 -0.33765261 166.93487773 -0.34381415 172.00082779 -0.33932304 C173.85346317 -0.34014389 175.70610491 -0.34605109 177.55870438 -0.35761642 C201.68911726 -0.50078374 201.68911726 -0.50078374 208.27838516 4.85023212 C212.13104748 8.81378964 213.98913295 12.60870908 215 18 C214.34 18 213.68 18 213 18 C212.938125 19.051875 212.87625 20.10375 212.8125 21.1875 C211.66028921 26.59402758 208.94215762 28.56893649 204.625 31.75 C199.28218321 34.29419847 194.68035766 34.05458117 189 33 C189.03812217 45.34431822 189.09757919 57.68833468 189.18390274 70.03241539 C189.22332855 75.76494834 189.25554117 81.4973288 189.27099609 87.22998047 C189.28619473 92.7674408 189.32069767 98.30448176 189.36830902 103.84175491 C189.38308969 105.94909637 189.3910391 108.05649771 189.39188385 110.16389084 C189.39426522 113.12712509 189.42143916 116.08921131 189.45410156 119.05224609 C189.4490712 119.91396423 189.44404083 120.77568237 189.43885803 121.66351318 C189.59324078 130.77930305 193.43963596 138.27947596 197.6875 146.16796875 C198.02672485 146.80193069 198.36594971 147.43589264 198.7154541 148.08906555 C199.80563139 150.12442432 200.90278012 152.15593068 202 154.1875 C203.1491493 156.32877199 204.29642473 158.47104026 205.44348145 160.61343384 C206.20878888 162.04275085 206.97465588 163.4717684 207.74108887 164.90048218 C211.04897038 171.07205678 214.28294081 177.28063573 217.5 183.5 C220.80630852 189.87946567 224.18768158 196.19729554 227.75 202.4375 C230.92487595 207.99912741 233.87511167 213.63114104 236.70458984 219.37548828 C243.93665497 234.02559595 251.63951047 248.44748277 259.26123047 262.89770508 C262.52564526 269.08904075 265.76520393 275.29314541 269 281.5 C278.59769121 299.91636846 278.59769121 299.91636846 288.359375 318.24609375 C289.59399282 320.53893176 290.82835956 322.83190499 292.0625 325.125 C292.37624573 325.7079483 292.68999146 326.29089661 293.01324463 326.89151001 C298.73446173 337.53343946 304.27628667 348.26271295 309.78424072 359.01623535 C314.49626377 368.21046523 319.31293063 377.32807348 324.31738281 386.36743164 C330.0288748 396.7538207 335.38388712 407.32733984 340.77124023 417.88427734 C341.51271295 419.33568613 342.25432683 420.7870228 342.99609375 422.23828125 C343.34868759 422.92907776 343.70128143 423.61987427 344.06455994 424.331604 C346.33511436 428.76096508 348.69431368 433.12476768 351.20727539 437.42260742 C352 439 352 439 352 441 C352.66 441.33 353.32 441.66 354 442 C355.23545938 444.26197241 356.37886731 446.51830737 357.4921875 448.83984375 C358.21186098 450.31039705 358.93295295 451.78025679 359.65527344 453.24951172 C360.03663452 454.0267157 360.41799561 454.80391968 360.81091309 455.60467529 C362.80366089 459.61891345 364.87610101 463.59120035 366.9453125 467.56640625 C367.80363451 469.22317827 368.66170511 470.88008055 369.51953125 472.53710938 C370.82357677 475.05478464 372.12960815 477.57132587 373.44189453 480.0847168 C390.89411438 513.53751111 401.1520262 546.54168457 389.8125 583.625 C381.09470058 608.32543168 362.90704677 627.61325473 340 639.8125 C323.97771989 647.31795347 308.20888235 649.30425607 290.70632935 649.26069641 C288.97353256 649.2637215 287.24073711 649.26761277 285.50794399 649.27228898 C280.77340053 649.28253155 276.03893311 649.28039674 271.30438352 649.27610838 C266.1877062 649.27363436 261.07104688 649.28266368 255.95437622 649.29014587 C245.9409137 649.30287588 235.92747801 649.3046887 225.91400875 649.30234561 C217.77272598 649.30056048 209.63145133 649.30231627 201.49016953 649.30657005 C200.3301858 649.30716524 199.17020208 649.30776043 197.97506734 649.30837366 C195.61834598 649.30958544 193.26162463 649.31079958 190.90490328 649.31201603 C168.81855244 649.32288492 146.73221688 649.32073209 124.64586519 649.31463119 C104.45463809 649.30946196 84.26345923 649.32071879 64.07224168 649.33972941 C43.32250191 649.35911561 22.57278496 649.36736247 1.82303607 649.36360615 C-9.81941702 649.36169539 -21.46182905 649.36416965 -33.10427475 649.37832069 C-43.0150221 649.39024538 -52.92570311 649.3916271 -62.8364514 649.37953053 C-67.88932719 649.37364968 -72.94208169 649.3725205 -77.99494934 649.38453293 C-82.62750599 649.39541784 -87.25984044 649.39225744 -91.89238681 649.37827124 C-93.56117589 649.37563151 -95.22998254 649.37796793 -96.89875434 649.38600711 C-107.05554232 649.43150999 -116.11761469 648.56796693 -126 646 C-127.11626672 645.72397849 -128.23253343 645.44795698 -129.38262641 645.16357118 C-134.75827966 643.83139531 -134.75827966 643.83139531 -137 643 C-137.33 642.34 -137.66 641.68 -138 641 C-139.33171188 640.66024663 -140.6654677 640.32850026 -142 640 C-150.52097119 635.74584499 -157.88535374 630.28762528 -165 624 C-165.62390625 623.45988281 -166.2478125 622.91976562 -166.890625 622.36328125 C-184.32584682 606.19089092 -195.32515342 580.88831431 -196.31640625 557.41015625 C-196.40222339 554.96106723 -196.48415197 552.51183934 -196.5625 550.0625 C-196.60568359 548.80630859 -196.64886719 547.55011719 -196.69335938 546.25585938 C-196.79893619 543.17067032 -196.90104551 540.08540737 -197 537 C-196.34 537 -195.68 537 -195 537 C-194.98582031 536.40316406 -194.97164062 535.80632813 -194.95703125 535.19140625 C-193.77962716 513.77538044 -182.95215438 494.4762536 -173 476 C-170.88219949 472.05709328 -168.76588432 468.11339091 -166.65026855 464.16931152 C-166.00676565 462.97001532 -165.36296527 461.7708787 -164.71887207 460.57189941 C-160.18150086 452.12467185 -155.7154361 443.64324655 -151.3125 435.125 C-146.82957319 426.45306419 -142.22353017 417.86048092 -137.51879883 409.30712891 C-133.1655411 401.36652388 -128.99729953 393.33571343 -124.84228516 385.29003906 C-121.44263535 378.72457247 -117.95197209 372.22025699 -114.375 365.75 C-108.42423163 354.96727257 -102.84124476 344.00228413 -97.24136353 333.03497314 C-92.62639722 324.0009393 -87.98853325 314.99470728 -83.0625 306.125 C-76.9935282 295.19385483 -71.35686788 284.04482904 -65.67831421 272.90786743 C-60.25142167 262.26924995 -54.74342631 251.70139938 -48.95751953 241.25268555 C-45.33317358 234.68461286 -41.95218909 228.01488216 -38.62841797 221.29052734 C-35.99318591 215.9646177 -33.28615744 210.68592481 -30.5 205.4375 C-24.84598815 194.77772903 -19.34851709 184.03808366 -13.84179688 173.30175781 C-10.25909171 166.31955027 -6.66795057 159.34267264 -3.01953125 152.39453125 C-2.42052002 151.25193848 -1.82150879 150.1093457 -1.2043457 148.93212891 C-0.10125155 146.83212586 1.0054483 144.73401122 2.11645508 142.63818359 C6.93480764 133.46014167 9.5176958 125.60236087 8.5 115.1875 C7.88227896 108.59332791 8.19102057 102.21088106 8.68164062 95.6237793 C8.73513672 94.85203369 8.78863281 94.08028809 8.84375 93.28515625 C8.92399414 92.26240601 8.92399414 92.26240601 9.00585938 91.21899414 C9.06404796 88.90877186 9.06404796 88.90877186 8.51806641 86.3112793 C7.85829602 82.09428321 7.85689104 77.99546814 7.8671875 73.734375 C7.86623077 72.85976624 7.86527405 71.98515747 7.86428833 71.08404541 C7.86361059 69.24515714 7.86543643 67.40626643 7.86962891 65.56738281 C7.87500879 62.7453887 7.86965696 59.92355187 7.86328125 57.1015625 C7.8639416 55.31249965 7.86522186 53.52343689 7.8671875 51.734375 C7.86516327 50.88856873 7.86313904 50.04276245 7.86105347 49.17132568 C7.88502358 43.22995283 7.88502358 43.22995283 9 41 C9.04022391 38.6670134 9.04320247 36.33293334 9 34 C8.14277344 33.97421875 7.28554688 33.9484375 6.40234375 33.921875 C-5.79784781 33.31667948 -5.79784781 33.31667948 -11 29 C-14.4177975 24.29285374 -15.83366508 19.83565556 -15 14 C-13.06317858 8.2221788 -10.54988036 4.83157161 -5 2 C-2.125 1.25 -2.125 1.25 0 1 C0 0.67 0 0.34 0 0 Z M42 33 C42 48.84 42 64.68 42 81 C41.91324532 97.60050717 41.91324532 97.60050717 41.79248047 104.84204102 C41.76322621 106.8015723 41.74256805 108.76124456 41.72900391 110.72094727 C41.61627393 126.43174788 39.76410007 138.54150158 32.375 152.625 C31.93679932 153.4806958 31.49859863 154.3363916 31.04711914 155.21801758 C29.71051919 157.81870365 28.35843268 160.41066098 27 163 C26.42403076 164.10045654 26.42403076 164.10045654 25.83642578 165.22314453 C24.31149895 168.13193744 22.78171332 171.03807012 21.24365234 173.93994141 C17.31200068 181.36639455 13.46761914 188.83686475 9.62585449 196.31005859 C0.70969897 213.65320401 -8.29734915 230.92626447 -17.6809082 248.0222168 C-20.56451224 253.29805465 -23.35281234 258.60193621 -26 264 C-29.42726532 270.97946457 -33.1274438 277.78959836 -36.875 284.6015625 C-41.67620275 293.35252318 -46.34288326 302.17187264 -51 311 C-55.99820631 320.47386876 -61.01923243 329.92988753 -66.1875 339.3125 C-71.11057797 348.25609165 -75.80528894 357.31040183 -80.47109985 366.38967896 C-84.95124562 375.10368752 -89.55305212 383.73798406 -94.29199219 392.31445312 C-99.6927118 402.15160665 -104.77804271 412.15216457 -109.86279297 422.15527344 C-113.11048891 428.5248503 -116.42605399 434.81543181 -120.015625 441 C-123.21467276 446.52448984 -126.12475762 452.13679818 -128.94554138 457.86204529 C-131.32617601 462.6839932 -133.7949968 467.4499531 -136.33203125 472.19140625 C-136.69588928 472.87160324 -137.05974731 473.55180023 -137.43463135 474.25260925 C-138.17928726 475.64361136 -138.92420342 477.03447418 -139.66937256 478.42520142 C-164.25159391 522.05753077 -164.25159391 522.05753077 -164.15625 570.828125 C-158.02277724 587.65373271 -147.78661604 602.87004711 -131.13574219 610.89892578 C-122.7003768 614.66064278 -115.11555842 617.12120286 -105.78369141 617.13422108 C-105.06425812 617.13657331 -104.34482484 617.13892554 -103.60359055 617.14134905 C-101.18623268 617.14802057 -98.76892879 617.14758138 -96.3515625 617.14717102 C-94.60347124 617.1504708 -92.85538075 617.15419661 -91.10729122 617.1583125 C-86.29801593 617.16832771 -81.48875311 617.17204853 -76.67946887 617.17470181 C-71.49452354 617.17860629 -66.30958808 617.18818455 -61.12464905 617.19691467 C-48.60005175 617.21667521 -36.07545366 617.22674486 -23.55084467 617.23564246 C-17.6520498 617.24002611 -11.75325583 617.24539273 -5.85446167 617.25063133 C13.75584222 617.26764335 33.36614555 617.28213732 52.97645569 617.28938007 C58.06519573 617.29128995 63.15393576 617.29321029 68.24267578 617.29516602 C70.13983638 617.29589163 70.13983638 617.29589163 72.07532346 617.2966319 C92.56190681 617.30493146 113.04843175 617.33026727 133.5349896 617.36274669 C154.57039267 617.39582423 175.60576608 617.41382947 196.6411953 617.41702431 C208.45085649 617.41918878 220.26043252 617.42792827 232.07006836 617.45348549 C242.12814371 617.47520194 252.18611321 617.48323822 262.24420935 617.47351871 C267.37391235 617.46897677 272.50339699 617.47085426 277.63306999 617.49028015 C282.33498298 617.50793196 287.03651863 617.50689766 291.73843575 617.49138286 C293.43366575 617.48900986 295.12892202 617.49331426 296.82411194 617.50521151 C316.49423098 617.63463947 332.66516497 611.82590598 347 598 C357.78816621 585.73767443 364.02007673 571.33205454 365 555 C365.05285156 554.35289062 365.10570312 553.70578125 365.16015625 553.0390625 C365.97364805 534.57633561 358.23920486 517.98783456 350.02197266 502 C348.75905636 499.5284734 347.52867378 497.04168401 346.29907227 494.5534668 C337.70443421 477.19842885 328.72501813 460.03254578 319.3972168 443.0612793 C312.59000067 430.6519739 306.12810649 418.06085634 299.63671875 405.484375 C294.46154208 395.47293887 289.29897539 385.48668522 283.5859375 375.76953125 C281.9393241 372.89404134 280.45749203 369.97555515 279 367 C270.76031266 350.34193331 262.35877076 333.75864208 253.1394043 317.61816406 C250.74270723 313.39548915 248.51251769 309.11001488 246.375 304.75 C242.78095098 297.42398756 238.93696977 290.24359053 235.0625 283.0625 C229.35317653 272.47960268 223.79308777 261.82803582 218.3125 251.125 C212.15087063 239.09630529 205.80913564 227.18655008 199.28613281 215.34912109 C197.28177275 211.6881582 195.32385871 208.00323993 193.375 204.3125 C193.02236084 203.64532959 192.66972168 202.97815918 192.30639648 202.29077148 C190.28914755 198.46606751 188.28787088 194.63327937 186.29296875 190.796875 C185.83809082 189.92506592 185.38321289 189.05325684 184.91455078 188.1550293 C184.03071617 186.46029479 183.15004519 184.76390565 182.27294922 183.06567383 C181.87479004 182.30279053 181.47663086 181.53990723 181.06640625 180.75390625 C180.71521729 180.07658447 180.36402832 179.3992627 180.00219727 178.70141602 C178.99346042 176.82653666 178.99346042 176.82653666 177 175 C176.01 175.33 175.02 175.66 174 176 C172.875 169.25 172.875 169.25 174 167 C172.93326167 164.45179004 172.93326167 164.45179004 171.32421875 161.58203125 C170.74349609 160.49212891 170.16277344 159.40222656 169.56445312 158.27929688 C168.94505859 157.13525391 168.32566406 155.99121094 167.6875 154.8125 C166.47690963 152.57233012 165.27229466 150.32891893 164.07421875 148.08203125 C163.53369873 147.08405518 162.99317871 146.0860791 162.4362793 145.05786133 C159.27329604 138.32381997 158.70184953 132.50650966 158.69702148 125.16503906 C158.68858215 124.20323227 158.68014282 123.24142548 158.67144775 122.25047302 C158.64577171 119.0888517 158.63355504 115.92732352 158.62109375 112.765625 C158.6049118 110.56320463 158.58773108 108.36079138 158.56959534 106.15838623 C158.52399195 100.37281588 158.48913909 94.58723593 158.45739746 88.80157471 C158.40543726 79.52699848 158.34043206 70.2525268 158.26918221 60.97808075 C158.24633174 57.73688187 158.23007516 54.49569637 158.21446228 51.25445557 C158.20105878 49.27542979 158.18744425 47.29640544 158.17358398 45.31738281 C158.16966393 43.96147285 158.16966393 43.96147285 158.16566467 42.57817078 C158.15876617 41.75116165 158.15186768 40.92415253 158.14476013 40.07208252 C158.14090522 39.35387959 158.1370503 38.63567665 158.13307858 37.89570999 C158.06325083 35.77472331 158.06325083 35.77472331 157 33 C119.05 33 81.1 33 42 33 Z M174 171 C174.66 171.66 175.32 172.32 176 173 C176 172.34 176 171.68 176 171 C175.34 171 174.68 171 174 171 Z " fill="#010101" transform="translate(413,296)"/>
<path d="M0 0 C0.83789062 0.26683594 1.67578125 0.53367188 2.5390625 0.80859375 C16.70704783 5.86858851 27.79024734 15.70434479 35.9375 28.125 C36.31543701 28.69879395 36.69337402 29.27258789 37.08276367 29.86376953 C38.91891693 32.79340005 40.25486563 35.54227254 41.12890625 38.8671875 C41.41636719 39.90101563 41.70382812 40.93484375 42 42 C42.66 42.33 43.32 42.66 44 43 C48.10029232 55.35149786 47.15472763 70.87087578 43 83 C42.6596875 83.99515625 42.319375 84.9903125 41.96875 86.015625 C36.01504342 101.70444641 23.70208596 115.72693897 8.30859375 122.76953125 C-9.10577572 130.22462304 -26.08105327 131.37558104 -44 125 C-56.27322308 120.01998871 -65.75943082 112.28736282 -74 102 C-74.54527344 101.33742188 -75.09054687 100.67484375 -75.65234375 99.9921875 C-85.24766522 87.14959438 -87.39402937 69.10017489 -85.609375 53.609375 C-82.40045473 35.59005351 -72.31685275 20.20360294 -58 9 C-40.67714769 -2.88455497 -20.0682704 -6.64150496 0 0 Z " fill="#000000" transform="translate(532,142)"/>
<path d="M0 0 C8.89886287 6.94701993 13.92391351 15.58894518 15.71875 26.703125 C17.11102978 38.0734099 13.58339911 47.79990808 7 57 C4.4375 59.875 4.4375 59.875 2 62 C1.236875 62.680625 0.47375 63.36125 -0.3125 64.0625 C-10.03418719 71.07115821 -20.28999692 72.06644139 -32 71 C-35.70244829 70.17723371 -38.71590394 68.87901591 -42 67 C-42.85207031 66.51402344 -43.70414063 66.02804688 -44.58203125 65.52734375 C-54.34218069 59.33762379 -59.35797063 51.21496396 -62.33984375 40.15234375 C-64.49848148 29.84452925 -62.69423199 19.25636063 -57.3046875 10.12890625 C-50.46534138 1.03285281 -41.35631883 -5.33330253 -30.140625 -7.5703125 C-18.79101336 -9.12312006 -9.48038498 -6.09535005 0 0 Z " fill="#000000" transform="translate(651,67)"/>
<path d="M0 0 C4.02695488 3.23130654 6.97277179 6.91884649 9.75 11.25 C10.3378125 12.13945313 10.3378125 12.13945313 10.9375 13.046875 C15.84135242 21.48438578 16.75590135 32.27264328 14.56640625 41.6640625 C11.22802816 52.23825529 5.36501736 61.06887773 -4.56469727 66.31567383 C-13.84463412 70.94535944 -22.85135641 72.98793641 -33.16015625 70.56640625 C-44.4789737 66.7297888 -54.08783361 59.97369553 -59.5625 49.125 C-63.80123807 38.46393152 -64.62108654 26.49478918 -60.2421875 15.78515625 C-54.92349796 5.48239672 -47.29028704 -1.73213884 -36.3984375 -5.8203125 C-23.53485064 -9.58774823 -10.99282553 -7.62640259 0 0 Z " fill="#000000" transform="translate(494.25,556.75)"/>
<path d="M0 0 C5.7269467 5.94396783 9.1083257 12.49819435 9.4375 20.8125 C9.16892149 29.77630784 6.13247307 36.72310926 -0.00390625 43.2421875 C-6.42708327 48.89860562 -13.27361032 51.34775683 -21.8203125 51.21875 C-31.23762901 50.27364297 -38.50769328 45.33381648 -44.453125 38.19140625 C-49.2706387 31.36659518 -50.24136609 23.15028065 -49 15 C-46.18145127 6.75424572 -41.98522002 -0.00738999 -34 -4 C-34.33 -4.66 -34.66 -5.32 -35 -6 C-33.0693429 -6.23709824 -31.13854414 -6.47310245 -29.20703125 -6.703125 C-27.33450833 -6.95500419 -25.47636653 -7.31036978 -23.625 -7.6875 C-14.63052595 -8.46288569 -7.05658348 -5.52095391 0 0 Z " fill="#010101" transform="translate(563,481)"/>
<path d="M0 0 C131.67 0 263.34 0 399 0 C399 0.33 399 0.66 399 1 C397.96101563 1.06058594 396.92203125 1.12117187 395.8515625 1.18359375 C388.21578016 1.63884613 380.60342926 2.14095871 373 3 C373 2.34 373 1.68 373 1 C371.58297487 1.14230808 370.1663904 1.28900746 368.75 1.4375 C367.96109375 1.51871094 367.1721875 1.59992187 366.359375 1.68359375 C364.17635361 1.97634993 362.1226818 2.42064419 360 3 C360 2.67 360 2.34 360 2 C354.39 2 348.78 2 343 2 C343 2.33 343 2.66 343 3 C340.58325776 3.02705308 338.1668206 3.04686438 335.75 3.0625 C334.72712891 3.07506836 334.72712891 3.07506836 333.68359375 3.08789062 C330.25875646 3.10451605 327.29727096 2.85090864 324 2 C321.75092848 1.93209325 319.49998395 1.91500016 317.25 1.9375 C315.49429688 1.95103516 315.49429688 1.95103516 313.703125 1.96484375 C312.81109375 1.97644531 311.9190625 1.98804688 311 2 C311 2.33 311 2.66 311 3 C308 3 305 3 302 3 C300.515 3.495 300.515 3.495 299 4 C298.01 3.34 297.02 2.68 296 2 C293.71351152 1.75892674 293.71351152 1.75892674 291.3125 1.875 C290.10013672 1.90207031 290.10013672 1.90207031 288.86328125 1.9296875 C288.24839844 1.95289063 287.63351562 1.97609375 287 2 C286.67 2.66 286.34 3.32 286 4 C284.50146484 3.89171875 284.50146484 3.89171875 282.97265625 3.78125 C281.68230469 3.6884375 280.39195312 3.595625 279.0625 3.5 C277.13083984 3.36078125 277.13083984 3.36078125 275.16015625 3.21875 C272.10410764 3.00720646 270.3714488 3.04260253 267.25390625 3.25390625 C266.49916016 3.30353516 265.74441406 3.35316406 264.96679688 3.40429688 C263.36756041 3.50952689 261.76858999 3.61888381 260.16992188 3.73242188 C254.22505669 4.11252834 254.22505669 4.11252834 252 3 C250.33805547 2.64386903 248.671549 2.30791692 247 2 C247 2.33 247 2.66 247 3 C245.35 3 243.7 3 242 3 C242 2.67 242 2.34 242 2 C240.95199219 2 239.90398437 2 238.82421875 2 C233.8828125 2 228.94140625 2 224 2 C223.67 2.33 223.34 2.66 223 3 C219.7848773 3.06009575 216.58547814 3.01991703 213.37109375 2.9609375 C211.58080145 2.94024048 209.79009925 2.9665402 208 3 C207.67 3.33 207.34 3.66 207 4 C205.30858344 3.91036938 203.62040398 3.75422324 201.9375 3.5625 C200.55884766 3.40974609 200.55884766 3.40974609 199.15234375 3.25390625 C198.08693359 3.12822266 198.08693359 3.12822266 197 3 C197 2.67 197 2.34 197 2 C194.03 2 191.06 2 188 2 C188 2.33 188 2.66 188 3 C183.05 3.495 183.05 3.495 178 4 C178 3.34 178 2.68 178 2 C171.73 2 165.46 2 159 2 C159 2.33 159 2.66 159 3 C157.02 3 155.04 3 153 3 C153 2.34 153 1.68 153 1 C151.72769531 1.0721875 150.45539063 1.144375 149.14453125 1.21875 C136.41669058 1.90288516 123.74469907 2.11621306 111 2 C111 2.33 111 2.66 111 3 C109.02 3 107.04 3 105 3 C105 2.67 105 2.34 105 2 C96.75 2 88.5 2 80 2 C80 2.33 80 2.66 80 3 C75 3 70 3 65 3 C65 2.67 65 2.34 65 2 C62.36 2 59.72 2 57 2 C57 2.33 57 2.66 57 3 C50.66666667 3 44.33333333 3 38 3 C36.66431979 3.32380126 35.33076989 3.65657551 34 4 C33.505 3.01 33.505 3.01 33 2 C32.34 2.33 31.68 2.66 31 3 C28.6670134 3.04022391 26.33293334 3.04320247 24 3 C24 2.67 24 2.34 24 2 C16.08 1.67 8.16 1.34 0 1 C0 0.67 0 0.34 0 0 Z M218 1 C222 2 222 2 222 2 Z M254 1 C254 1.33 254 1.66 254 2 C258.62 2 263.24 2 268 2 C268 1.67 268 1.34 268 1 C263.38 1 258.76 1 254 1 Z " fill="#0C0B0C" transform="translate(318,884)"/>
<path d="M0 0 C4.62 0 9.24 0 14 0 C13.34 0.66 12.68 1.32 12 2 C9.1796875 1.9765625 9.1796875 1.9765625 5.875 1.625 C4.77929688 1.51414062 3.68359375 1.40328125 2.5546875 1.2890625 C1.71164062 1.19367187 0.86859375 1.09828125 0 1 C0 0.67 0 0.34 0 0 Z " fill="#0C0C0C" transform="translate(456,886)"/>
<path d="M0 0 C2.31 0 4.62 0 7 0 C4.35261084 1.4606285 3.10551666 2 0 2 C0 1.34 0 0.68 0 0 Z " fill="#0B0B0B" transform="translate(438,886)"/>
<path d="M0 0 C1.98 0 3.96 0 6 0 C5.67 0.66 5.34 1.32 5 2 C3.35 1.67 1.7 1.34 0 1 C0 0.67 0 0.34 0 0 Z " fill="#0C0B0B" transform="translate(431,886)"/>
<path d="M0 0 C1.98 0 3.96 0 6 0 C4.02 0.99 4.02 0.99 2 2 C1.34 1.34 0.68 0.68 0 0 Z " fill="#0B0B0B" transform="translate(671,886)"/>
<path d="M0 0 C2.31 0 4.62 0 7 0 C7 0.33 7 0.66 7 1 C4.69 1 2.38 1 0 1 C0 0.67 0 0.34 0 0 Z " fill="#0B0A0B" transform="translate(606,886)"/>
<path d="M0 0 C2.31 0 4.62 0 7 0 C7 0.33 7 0.66 7 1 C4.69 1 2.38 1 0 1 C0 0.67 0 0.34 0 0 Z " fill="#0C0B0C" transform="translate(399,886)"/>
<path d="M0 0 C1.98 0 3.96 0 6 0 C6 0.33 6 0.66 6 1 C4.02 1 2.04 1 0 1 C0 0.67 0 0.34 0 0 Z " fill="#0B0C0B" transform="translate(663,886)"/>
<path d="M0 0 C1.98 0 3.96 0 6 0 C6 0.33 6 0.66 6 1 C4.02 1 2.04 1 0 1 C0 0.67 0 0.34 0 0 Z " fill="#0B0B0B" transform="translate(411,886)"/>
<path d="M0 0 C1.98 0 3.96 0 6 0 C6 0.33 6 0.66 6 1 C4.02 1 2.04 1 0 1 C0 0.67 0 0.34 0 0 Z " fill="#0E0D0E" transform="translate(327,886)"/>
<path d="M0 0 C1.65 0 3.3 0 5 0 C5 0.33 5 0.66 5 1 C3.35 1 1.7 1 0 1 C0 0.67 0 0.34 0 0 Z " fill="#0C0C0D" transform="translate(376,886)"/>
<path d="M0 0 C1.65 0 3.3 0 5 0 C5 0.33 5 0.66 5 1 C3.35 1 1.7 1 0 1 C0 0.67 0 0.34 0 0 Z " fill="#151515" transform="translate(536,472)"/>
<path d="M0 0 C0.33 0 0.66 0 1 0 C1 1.65 1 3.3 1 5 C0.67 5 0.34 5 0 5 C0 3.35 0 1.7 0 0 Z " fill="#0F0F0E" transform="translate(569,339)"/>
<path d="M0 0 C0.99 0.33 1.98 0.66 3 1 C2.01 1.33 1.02 1.66 0 2 C0 1.34 0 0.68 0 0 Z " fill="#0C0C0D" transform="translate(418,886)"/>
<path d="M0 0 C0.99 0 1.98 0 3 0 C2.67 0.66 2.34 1.32 2 2 C1.34 1.34 0.68 0.68 0 0 Z " fill="#0B0C0B" transform="translate(634,886)"/>
<path d="M0 0 C4 1 4 1 4 1 Z " fill="#0C0A0A" transform="translate(555,886)"/>
<path d="M0 0 C4 1 4 1 4 1 Z " fill="#0C0B0B" transform="translate(510,886)"/>
<path d="M0 0 C4 1 4 1 4 1 Z " fill="#0C0C0C" transform="translate(488,886)"/>
<path d="M0 0 C4 1 4 1 4 1 Z " fill="#0B0C0C" transform="translate(478,886)"/>
<path d="M0 0 C1 4 1 4 1 4 Z " fill="#0E0D0D" transform="translate(569,345)"/>
<path d="M0 0 C3 1 3 1 3 1 Z " fill="#0E0C0D" transform="translate(706,886)"/>
<path d="M0 0 C3 1 3 1 3 1 Z " fill="#0D0C0C" transform="translate(702,886)"/>
<path d="M0 0 C3 1 3 1 3 1 Z " fill="#0D0D0D" transform="translate(698,886)"/>
<path d="M0 0 C3 1 3 1 3 1 Z " fill="#0C0B0A" transform="translate(639,886)"/>
<path d="M0 0 C3 1 3 1 3 1 Z " fill="#0C0B0B" transform="translate(546,886)"/>
<path d="M0 0 C0.99 0.495 0.99 0.495 2 1 C1.01 1.495 1.01 1.495 0 2 C0 1.34 0 0.68 0 0 Z " fill="#0B0A0B" transform="translate(451,886)"/>
<path d="M0 0 C3 1 3 1 3 1 Z " fill="#0B0A0B" transform="translate(447,886)"/>
<path d="M0 0 C3 1 3 1 3 1 Z " fill="#0C0A0C" transform="translate(407,886)"/>
<path d="" fill="#121011" transform="translate(0,0)"/>
<path d="M0 0 C0.33 0.66 0.66 1.32 1 2 C0.34 1.67 -0.32 1.34 -1 1 C-0.67 0.67 -0.34 0.34 0 0 Z " fill="#100F0F" transform="translate(746,769)"/>
<path d="M0 0 C0.66 0 1.32 0 2 0 C1.67 0.66 1.34 1.32 1 2 C0.67 1.34 0.34 0.68 0 0 Z " fill="#110F0F" transform="translate(710,768)"/>
<path d="" fill="#110F10" transform="translate(0,0)"/>
<path d="M0 0 C0.33 0.66 0.66 1.32 1 2 C0.34 1.67 -0.32 1.34 -1 1 C-0.67 0.67 -0.34 0.34 0 0 Z " fill="#111111" transform="translate(722,723)"/>
<path d="M0 0 C0.66 0 1.32 0 2 0 C1.67 0.66 1.34 1.32 1 2 C0.67 1.34 0.34 0.68 0 0 Z " fill="#111110" transform="translate(592,479)"/>
<path d="M0 0 C0.66 0 1.32 0 2 0 C1.67 0.66 1.34 1.32 1 2 C0.67 1.34 0.34 0.68 0 0 Z " fill="#0E0F0F" transform="translate(568,335)"/>
<path d="" fill="#131112" transform="translate(0,0)"/>
<path d="M0 0 C2 1 2 1 2 1 Z " fill="#161412" transform="translate(566,946)"/>
<path d="M0 0 C2 1 2 1 2 1 Z " fill="#161415" transform="translate(550,946)"/>
<path d="M0 0 C2 1 2 1 2 1 Z " fill="#161413" transform="translate(492,946)"/>
<path d="" fill="#171516" transform="translate(0,0)"/>
<path d="M0 0 C2 1 2 1 2 1 Z " fill="#0C090B" transform="translate(687,886)"/>
<path d="M0 0 C2 1 2 1 2 1 Z " fill="#0C0D0C" transform="translate(683,886)"/>
<path d="M0 0 C2 1 2 1 2 1 Z " fill="#0E0C0D" transform="translate(643,886)"/>
<path d="M0 0 C2 1 2 1 2 1 Z " fill="#0D0C0B" transform="translate(631,886)"/>
<path d="M0 0 C2 1 2 1 2 1 Z " fill="#0C0D0C" transform="translate(550,886)"/>
<path d="M0 0 C2 1 2 1 2 1 Z " fill="#0D0C0C" transform="translate(507,886)"/>
<path d="M0 0 C2 1 2 1 2 1 Z " fill="#0B0C0B" transform="translate(493,886)"/>
<path d="M0 0 C2 1 2 1 2 1 Z " fill="#0D0D0D" transform="translate(483,886)"/>
<path d="M0 0 C2 1 2 1 2 1 Z " fill="#0B0D0D" transform="translate(337,886)"/>
<path d="M0 0 C2 1 2 1 2 1 Z " fill="#110F11" transform="translate(324,886)"/>
<path d="M0 0 C2 1 2 1 2 1 Z " fill="#141313" transform="translate(288,836)"/>
<path d="" fill="#141415" transform="translate(0,0)"/>
<path d="" fill="#151413" transform="translate(0,0)"/>
<path d="M0 0 C2 1 2 1 2 1 Z " fill="#121011" transform="translate(737,753)"/>
<path d="" fill="#191716" transform="translate(0,0)"/>
<path d="M0 0 C2 1 2 1 2 1 Z " fill="#191816" transform="translate(256,731)"/>
<path d="" fill="#131211" transform="translate(0,0)"/>
<path d="" fill="#100F10" transform="translate(0,0)"/>
<path d="" fill="#191416" transform="translate(0,0)"/>
<path d="" fill="#151113" transform="translate(0,0)"/>
<path d="" fill="#111012" transform="translate(0,0)"/>
<path d="" fill="#11110F" transform="translate(0,0)"/>
<path d="" fill="#161513" transform="translate(0,0)"/>
<path d="" fill="#111111" transform="translate(0,0)"/>
<path d="M0 0 C2 1 2 1 2 1 Z " fill="#111111" transform="translate(422,656)"/>
<path d="M0 0 C2 1 2 1 2 1 Z " fill="#100E0F" transform="translate(684,654)"/>
<path d="" fill="#100F0F" transform="translate(0,0)"/>
<path d="" fill="#131110" transform="translate(0,0)"/>
<path d="" fill="#121313" transform="translate(0,0)"/>
<path d="" fill="#131312" transform="translate(0,0)"/>
<path d="" fill="#111211" transform="translate(0,0)"/>
<path d="M0 0 C2 1 2 1 2 1 Z " fill="#111012" transform="translate(686,584)"/>
<path d="" fill="#151212" transform="translate(0,0)"/>
<path d="" fill="#141312" transform="translate(0,0)"/>
<path d="" fill="#100E0F" transform="translate(0,0)"/>
<path d="M0 0 C2 1 2 1 2 1 Z " fill="#161616" transform="translate(410,443)"/>
<path d="" fill="#161313" transform="translate(0,0)"/>
<path d="" fill="#151616" transform="translate(0,0)"/>
<path d="" fill="#0D0C0B" transform="translate(0,0)"/>
<path d="M0 0 C2 1 2 1 2 1 Z " fill="#1B191A" transform="translate(408,296)"/>
<path d="M0 0 C2 1 2 1 2 1 Z " fill="#11100F" transform="translate(532,136)"/>
<path d="" fill="#111110" transform="translate(0,0)"/>
<path d="" fill="#10100E" transform="translate(0,0)"/>
<path d="M0 0 C2 1 2 1 2 1 Z " fill="#121211" transform="translate(585,91)"/>
<path d="M0 0 C2 1 2 1 2 1 Z " fill="#131214" transform="translate(605,64)"/>
<path d="" fill="#1A191A" transform="translate(0,0)"/>
<path d="" fill="#2A2728" transform="translate(0,0)"/>
<path d="" fill="#262423" transform="translate(0,0)"/>
<path d="" fill="#252624" transform="translate(0,0)"/>
<path d="" fill="#252526" transform="translate(0,0)"/>
<path d="" fill="#252423" transform="translate(0,0)"/>
<path d="" fill="#232323" transform="translate(0,0)"/>
<path d="" fill="#191819" transform="translate(0,0)"/>
<path d="" fill="#1D1C1C" transform="translate(0,0)"/>
<path d="" fill="#1E1B1D" transform="translate(0,0)"/>
<path d="" fill="#1E1C1A" transform="translate(0,0)"/>
<path d="" fill="#1D1C1C" transform="translate(0,0)"/>
<path d="" fill="#191A19" transform="translate(0,0)"/>
<path d="" fill="#181416" transform="translate(0,0)"/>
<path d="" fill="#161515" transform="translate(0,0)"/>
<path d="" fill="#151512" transform="translate(0,0)"/>
<path d="" fill="#161615" transform="translate(0,0)"/>
<path d="" fill="#171413" transform="translate(0,0)"/>
<path d="" fill="#141012" transform="translate(0,0)"/>
<path d="" fill="#141512" transform="translate(0,0)"/>
<path d="" fill="#151415" transform="translate(0,0)"/>
<path d="" fill="#161414" transform="translate(0,0)"/>
<path d="" fill="#151614" transform="translate(0,0)"/>
<path d="" fill="#171415" transform="translate(0,0)"/>
<path d="" fill="#191717" transform="translate(0,0)"/>
<path d="" fill="#151212" transform="translate(0,0)"/>
<path d="" fill="#181513" transform="translate(0,0)"/>
<path d="" fill="#1A1413" transform="translate(0,0)"/>
<path d="" fill="#181415" transform="translate(0,0)"/>
<path d="" fill="#171717" transform="translate(0,0)"/>
<path d="" fill="#161415" transform="translate(0,0)"/>
<path d="" fill="#151413" transform="translate(0,0)"/>
<path d="" fill="#1A1818" transform="translate(0,0)"/>
<path d="" fill="#171716" transform="translate(0,0)"/>
<path d="" fill="#171513" transform="translate(0,0)"/>
<path d="" fill="#161417" transform="translate(0,0)"/>
<path d="" fill="#161416" transform="translate(0,0)"/>
<path d="" fill="#151614" transform="translate(0,0)"/>
<path d="" fill="#1A1819" transform="translate(0,0)"/>
<path d="" fill="#1D1C1B" transform="translate(0,0)"/>
<path d="" fill="#161817" transform="translate(0,0)"/>
<path d="" fill="#151316" transform="translate(0,0)"/>
<path d="" fill="#161516" transform="translate(0,0)"/>
<path d="" fill="#1C1B19" transform="translate(0,0)"/>
<path d="" fill="#111112" transform="translate(0,0)"/>
<path d="" fill="#161616" transform="translate(0,0)"/>
<path d="" fill="#121212" transform="translate(0,0)"/>
<path d="" fill="#171716" transform="translate(0,0)"/>
<path d="" fill="#1B191A" transform="translate(0,0)"/>
<path d="" fill="#181816" transform="translate(0,0)"/>
<path d="" fill="#121312" transform="translate(0,0)"/>
<path d="" fill="#131314" transform="translate(0,0)"/>
<path d="" fill="#121011" transform="translate(0,0)"/>
<path d="" fill="#20201F" transform="translate(0,0)"/>
<path d="" fill="#1A1616" transform="translate(0,0)"/>
<path d="" fill="#0E0C0D" transform="translate(0,0)"/>
<path d="" fill="#0D0E0B" transform="translate(0,0)"/>
<path d="" fill="#0D0C0B" transform="translate(0,0)"/>
<path d="" fill="#0C0C0C" transform="translate(0,0)"/>
<path d="" fill="#0D0C0E" transform="translate(0,0)"/>
<path d="" fill="#0C0F0B" transform="translate(0,0)"/>
<path d="" fill="#0E090C" transform="translate(0,0)"/>
<path d="" fill="#0D0C0B" transform="translate(0,0)"/>
<path d="" fill="#0B080B" transform="translate(0,0)"/>
<path d="" fill="#0E0D0D" transform="translate(0,0)"/>
<path d="" fill="#111011" transform="translate(0,0)"/>
<path d="" fill="#161614" transform="translate(0,0)"/>
<path d="" fill="#131313" transform="translate(0,0)"/>
<path d="" fill="#131111" transform="translate(0,0)"/>
<path d="" fill="#111311" transform="translate(0,0)"/>
<path d="" fill="#161315" transform="translate(0,0)"/>
<path d="" fill="#141312" transform="translate(0,0)"/>
<path d="" fill="#161414" transform="translate(0,0)"/>
<path d="" fill="#141414" transform="translate(0,0)"/>
<path d="" fill="#161411" transform="translate(0,0)"/>
<path d="" fill="#12120F" transform="translate(0,0)"/>
<path d="" fill="#121110" transform="translate(0,0)"/>
<path d="" fill="#141316" transform="translate(0,0)"/>
<path d="" fill="#141416" transform="translate(0,0)"/>
<path d="" fill="#131413" transform="translate(0,0)"/>
<path d="" fill="#1D1F1F" transform="translate(0,0)"/>
<path d="" fill="#21201F" transform="translate(0,0)"/>
<path d="" fill="#131211" transform="translate(0,0)"/>
<path d="" fill="#171212" transform="translate(0,0)"/>
<path d="" fill="#12110F" transform="translate(0,0)"/>
<path d="" fill="#151112" transform="translate(0,0)"/>
<path d="" fill="#151114" transform="translate(0,0)"/>
<path d="" fill="#151517" transform="translate(0,0)"/>
<path d="" fill="#161415" transform="translate(0,0)"/>
<path d="" fill="#131212" transform="translate(0,0)"/>
<path d="" fill="#161516" transform="translate(0,0)"/>
<path d="" fill="#111010" transform="translate(0,0)"/>
<path d="" fill="#151717" transform="translate(0,0)"/>
<path d="" fill="#161616" transform="translate(0,0)"/>
<path d="" fill="#12110E" transform="translate(0,0)"/>
<path d="" fill="#12110E" transform="translate(0,0)"/>
<path d="" fill="#141213" transform="translate(0,0)"/>
<path d="" fill="#100E0E" transform="translate(0,0)"/>
<path d="" fill="#121110" transform="translate(0,0)"/>
<path d="" fill="#110F10" transform="translate(0,0)"/>
<path d="" fill="#19191A" transform="translate(0,0)"/>
<path d="" fill="#0F0E0E" transform="translate(0,0)"/>
<path d="" fill="#120F0E" transform="translate(0,0)"/>
<path d="" fill="#110F10" transform="translate(0,0)"/>
<path d="" fill="#161513" transform="translate(0,0)"/>
<path d="" fill="#12100F" transform="translate(0,0)"/>
<path d="" fill="#130F11" transform="translate(0,0)"/>
<path d="" fill="#121212" transform="translate(0,0)"/>
<path d="" fill="#111012" transform="translate(0,0)"/>
<path d="" fill="#131311" transform="translate(0,0)"/>
<path d="" fill="#100E10" transform="translate(0,0)"/>
<path d="" fill="#121110" transform="translate(0,0)"/>
<path d="" fill="#181714" transform="translate(0,0)"/>
<path d="" fill="#141211" transform="translate(0,0)"/>
<path d="" fill="#191619" transform="translate(0,0)"/>
<path d="" fill="#0F120F" transform="translate(0,0)"/>
<path d="" fill="#121214" transform="translate(0,0)"/>
<path d="" fill="#131212" transform="translate(0,0)"/>
<path d="" fill="#121011" transform="translate(0,0)"/>
<path d="" fill="#252726" transform="translate(0,0)"/>
<path d="" fill="#161515" transform="translate(0,0)"/>
<path d="" fill="#191717" transform="translate(0,0)"/>
<path d="" fill="#181515" transform="translate(0,0)"/>
<path d="" fill="#131210" transform="translate(0,0)"/>
<path d="" fill="#0E1011" transform="translate(0,0)"/>
<path d="" fill="#131212" transform="translate(0,0)"/>
<path d="" fill="#131111" transform="translate(0,0)"/>
<path d="" fill="#120E10" transform="translate(0,0)"/>
<path d="" fill="#141210" transform="translate(0,0)"/>
<path d="" fill="#2D2A2C" transform="translate(0,0)"/>
<path d="" fill="#151514" transform="translate(0,0)"/>
<path d="" fill="#121213" transform="translate(0,0)"/>
<path d="" fill="#121010" transform="translate(0,0)"/>
<path d="" fill="#161716" transform="translate(0,0)"/>
<path d="" fill="#0D0E0F" transform="translate(0,0)"/>
<path d="" fill="#171717" transform="translate(0,0)"/>
<path d="" fill="#141011" transform="translate(0,0)"/>
<path d="" fill="#191816" transform="translate(0,0)"/>
<path d="" fill="#12120F" transform="translate(0,0)"/>
<path d="" fill="#2F2C2E" transform="translate(0,0)"/>
<path d="" fill="#0F100D" transform="translate(0,0)"/>
<path d="" fill="#131010" transform="translate(0,0)"/>
<path d="" fill="#161414" transform="translate(0,0)"/>
<path d="" fill="#121210" transform="translate(0,0)"/>
<path d="" fill="#161617" transform="translate(0,0)"/>
<path d="" fill="#131012" transform="translate(0,0)"/>
<path d="" fill="#121111" transform="translate(0,0)"/>
<path d="" fill="#131414" transform="translate(0,0)"/>
<path d="" fill="#2B292B" transform="translate(0,0)"/>
<path d="" fill="#151612" transform="translate(0,0)"/>
<path d="" fill="#131311" transform="translate(0,0)"/>
<path d="" fill="#151416" transform="translate(0,0)"/>
<path d="" fill="#141312" transform="translate(0,0)"/>
<path d="" fill="#181A17" transform="translate(0,0)"/>
<path d="" fill="#13120F" transform="translate(0,0)"/>
<path d="" fill="#121210" transform="translate(0,0)"/>
<path d="" fill="#121313" transform="translate(0,0)"/>
<path d="" fill="#191516" transform="translate(0,0)"/>
<path d="" fill="#181414" transform="translate(0,0)"/>
<path d="" fill="#141212" transform="translate(0,0)"/>
<path d="" fill="#151617" transform="translate(0,0)"/>
<path d="" fill="#2F2C2D" transform="translate(0,0)"/>
<path d="" fill="#151516" transform="translate(0,0)"/>
<path d="" fill="#121013" transform="translate(0,0)"/>
<path d="" fill="#121011" transform="translate(0,0)"/>
<path d="" fill="#272926" transform="translate(0,0)"/>
<path d="" fill="#141213" transform="translate(0,0)"/>
<path d="" fill="#141413" transform="translate(0,0)"/>
<path d="" fill="#151412" transform="translate(0,0)"/>
<path d="" fill="#121311" transform="translate(0,0)"/>
<path d="" fill="#161614" transform="translate(0,0)"/>
<path d="" fill="#131411" transform="translate(0,0)"/>
<path d="" fill="#12100E" transform="translate(0,0)"/>
<path d="" fill="#121210" transform="translate(0,0)"/>
<path d="" fill="#10110F" transform="translate(0,0)"/>
<path d="" fill="#151314" transform="translate(0,0)"/>
<path d="" fill="#151315" transform="translate(0,0)"/>
<path d="" fill="#0F1212" transform="translate(0,0)"/>
<path d="" fill="#151514" transform="translate(0,0)"/>
<path d="" fill="#121211" transform="translate(0,0)"/>
<path d="" fill="#121012" transform="translate(0,0)"/>
<path d="" fill="#131112" transform="translate(0,0)"/>
<path d="" fill="#121211" transform="translate(0,0)"/>
<path d="" fill="#151413" transform="translate(0,0)"/>
<path d="" fill="#151812" transform="translate(0,0)"/>
<path d="" fill="#151514" transform="translate(0,0)"/>
<path d="" fill="#131311" transform="translate(0,0)"/>
<path d="" fill="#131311" transform="translate(0,0)"/>
<path d="" fill="#141212" transform="translate(0,0)"/>
<path d="" fill="#171414" transform="translate(0,0)"/>
<path d="" fill="#161614" transform="translate(0,0)"/>
<path d="" fill="#2A2B2B" transform="translate(0,0)"/>
<path d="" fill="#141313" transform="translate(0,0)"/>
<path d="" fill="#111111" transform="translate(0,0)"/>
<path d="" fill="#121111" transform="translate(0,0)"/>
<path d="" fill="#111113" transform="translate(0,0)"/>
<path d="" fill="#131313" transform="translate(0,0)"/>
<path d="" fill="#131212" transform="translate(0,0)"/>
<path d="" fill="#121110" transform="translate(0,0)"/>
<path d="" fill="#171511" transform="translate(0,0)"/>
<path d="" fill="#151415" transform="translate(0,0)"/>
<path d="" fill="#121411" transform="translate(0,0)"/>
<path d="" fill="#0F0E0E" transform="translate(0,0)"/>
<path d="" fill="#131213" transform="translate(0,0)"/>
<path d="" fill="#161513" transform="translate(0,0)"/>
<path d="" fill="#111011" transform="translate(0,0)"/>
<path d="" fill="#171416" transform="translate(0,0)"/>
<path d="" fill="#141516" transform="translate(0,0)"/>
<path d="" fill="#151415" transform="translate(0,0)"/>
<path d="" fill="#272725" transform="translate(0,0)"/>
<path d="" fill="#130F12" transform="translate(0,0)"/>
<path d="" fill="#141514" transform="translate(0,0)"/>
<path d="" fill="#191416" transform="translate(0,0)"/>
<path d="" fill="#121011" transform="translate(0,0)"/>
<path d="" fill="#121112" transform="translate(0,0)"/>
<path d="" fill="#161412" transform="translate(0,0)"/>
<path d="" fill="#161516" transform="translate(0,0)"/>
<path d="" fill="#151413" transform="translate(0,0)"/>
<path d="" fill="#191715" transform="translate(0,0)"/>
<path d="" fill="#262324" transform="translate(0,0)"/>
<path d="" fill="#1E1C1D" transform="translate(0,0)"/>
<path d="" fill="#121010" transform="translate(0,0)"/>
<path d="" fill="#151316" transform="translate(0,0)"/>
<path d="" fill="#141210" transform="translate(0,0)"/>
<path d="" fill="#131312" transform="translate(0,0)"/>
<path d="" fill="#171414" transform="translate(0,0)"/>
<path d="" fill="#161313" transform="translate(0,0)"/>
<path d="" fill="#131210" transform="translate(0,0)"/>
<path d="" fill="#141312" transform="translate(0,0)"/>
<path d="" fill="#121113" transform="translate(0,0)"/>
<path d="" fill="#111111" transform="translate(0,0)"/>
<path d="" fill="#161213" transform="translate(0,0)"/>
<path d="" fill="#141113" transform="translate(0,0)"/>
<path d="" fill="#131513" transform="translate(0,0)"/>
<path d="" fill="#141413" transform="translate(0,0)"/>
<path d="" fill="#141415" transform="translate(0,0)"/>
<path d="" fill="#272524" transform="translate(0,0)"/>
<path d="" fill="#1A1818" transform="translate(0,0)"/>
<path d="" fill="#141314" transform="translate(0,0)"/>
<path d="" fill="#121313" transform="translate(0,0)"/>
<path d="" fill="#111111" transform="translate(0,0)"/>
<path d="" fill="#141211" transform="translate(0,0)"/>
<path d="" fill="#181415" transform="translate(0,0)"/>
<path d="" fill="#151114" transform="translate(0,0)"/>
<path d="" fill="#141414" transform="translate(0,0)"/>
<path d="" fill="#151113" transform="translate(0,0)"/>
<path d="" fill="#141514" transform="translate(0,0)"/>
<path d="" fill="#2C2C2C" transform="translate(0,0)"/>
<path d="" fill="#1C1A1B" transform="translate(0,0)"/>
<path d="" fill="#171212" transform="translate(0,0)"/>
<path d="" fill="#151315" transform="translate(0,0)"/>
<path d="" fill="#171316" transform="translate(0,0)"/>
<path d="" fill="#151512" transform="translate(0,0)"/>
<path d="" fill="#111212" transform="translate(0,0)"/>
<path d="" fill="#121112" transform="translate(0,0)"/>
<path d="" fill="#161413" transform="translate(0,0)"/>
<path d="" fill="#131212" transform="translate(0,0)"/>
<path d="" fill="#121110" transform="translate(0,0)"/>
<path d="" fill="#141110" transform="translate(0,0)"/>
<path d="" fill="#141412" transform="translate(0,0)"/>
<path d="" fill="#111110" transform="translate(0,0)"/>
<path d="" fill="#131010" transform="translate(0,0)"/>
<path d="" fill="#141212" transform="translate(0,0)"/>
<path d="" fill="#131112" transform="translate(0,0)"/>
<path d="" fill="#141213" transform="translate(0,0)"/>
<path d="" fill="#131314" transform="translate(0,0)"/>
<path d="" fill="#151312" transform="translate(0,0)"/>
<path d="" fill="#100F11" transform="translate(0,0)"/>
<path d="" fill="#121313" transform="translate(0,0)"/>
<path d="" fill="#101010" transform="translate(0,0)"/>
<path d="" fill="#131111" transform="translate(0,0)"/>
<path d="" fill="#131311" transform="translate(0,0)"/>
<path d="" fill="#161615" transform="translate(0,0)"/>
<path d="" fill="#121414" transform="translate(0,0)"/>
<path d="" fill="#131012" transform="translate(0,0)"/>
<path d="" fill="#101011" transform="translate(0,0)"/>
<path d="" fill="#131212" transform="translate(0,0)"/>
<path d="" fill="#131212" transform="translate(0,0)"/>
<path d="" fill="#171213" transform="translate(0,0)"/>
<path d="" fill="#121112" transform="translate(0,0)"/>
<path d="" fill="#141414" transform="translate(0,0)"/>
<path d="" fill="#131211" transform="translate(0,0)"/>
<path d="" fill="#302F30" transform="translate(0,0)"/>
<path d="" fill="#151511" transform="translate(0,0)"/>
<path d="" fill="#141311" transform="translate(0,0)"/>
<path d="" fill="#111211" transform="translate(0,0)"/>
<path d="" fill="#141211" transform="translate(0,0)"/>
<path d="" fill="#120F13" transform="translate(0,0)"/>
<path d="" fill="#111111" transform="translate(0,0)"/>
<path d="" fill="#161414" transform="translate(0,0)"/>
<path d="" fill="#151311" transform="translate(0,0)"/>
<path d="" fill="#141413" transform="translate(0,0)"/>
<path d="" fill="#2B2A29" transform="translate(0,0)"/>
<path d="" fill="#131312" transform="translate(0,0)"/>
<path d="" fill="#141314" transform="translate(0,0)"/>
<path d="" fill="#292927" transform="translate(0,0)"/>
<path d="" fill="#2C2C2B" transform="translate(0,0)"/>
<path d="" fill="#131111" transform="translate(0,0)"/>
<path d="" fill="#141110" transform="translate(0,0)"/>
<path d="" fill="#151316" transform="translate(0,0)"/>
<path d="" fill="#181718" transform="translate(0,0)"/>
<path d="" fill="#1A1A19" transform="translate(0,0)"/>
<path d="" fill="#161414" transform="translate(0,0)"/>
<path d="" fill="#141314" transform="translate(0,0)"/>
<path d="" fill="#141113" transform="translate(0,0)"/>
<path d="" fill="#131310" transform="translate(0,0)"/>
<path d="" fill="#121413" transform="translate(0,0)"/>
<path d="" fill="#140F10" transform="translate(0,0)"/>
<path d="" fill="#171615" transform="translate(0,0)"/>
<path d="" fill="#141312" transform="translate(0,0)"/>
<path d="" fill="#171818" transform="translate(0,0)"/>
<path d="" fill="#141413" transform="translate(0,0)"/>
<path d="" fill="#121111" transform="translate(0,0)"/>
<path d="" fill="#131212" transform="translate(0,0)"/>
<path d="" fill="#171615" transform="translate(0,0)"/>
<path d="" fill="#181517" transform="translate(0,0)"/>
<path d="" fill="#171616" transform="translate(0,0)"/>
<path d="" fill="#131414" transform="translate(0,0)"/>
<path d="" fill="#151414" transform="translate(0,0)"/>
<path d="" fill="#131414" transform="translate(0,0)"/>
<path d="" fill="#303131" transform="translate(0,0)"/>
<path d="" fill="#141313" transform="translate(0,0)"/>
<path d="" fill="#161412" transform="translate(0,0)"/>
<path d="" fill="#161213" transform="translate(0,0)"/>
<path d="" fill="#191618" transform="translate(0,0)"/>
<path d="" fill="#151513" transform="translate(0,0)"/>
<path d="" fill="#22201F" transform="translate(0,0)"/>
<path d="" fill="#171718" transform="translate(0,0)"/>
<path d="" fill="#151213" transform="translate(0,0)"/>
<path d="" fill="#1A1519" transform="translate(0,0)"/>
<path d="" fill="#151916" transform="translate(0,0)"/>
<path d="" fill="#161414" transform="translate(0,0)"/>
<path d="" fill="#181514" transform="translate(0,0)"/>
<path d="" fill="#242525" transform="translate(0,0)"/>
<path d="" fill="#141617" transform="translate(0,0)"/>
<path d="" fill="#151313" transform="translate(0,0)"/>
<path d="" fill="#29292A" transform="translate(0,0)"/>
<path d="" fill="#2A2A2A" transform="translate(0,0)"/>
<path d="" fill="#191417" transform="translate(0,0)"/>
<path d="" fill="#121211" transform="translate(0,0)"/>
<path d="" fill="#141313" transform="translate(0,0)"/>
<path d="" fill="#161216" transform="translate(0,0)"/>
<path d="" fill="#121310" transform="translate(0,0)"/>
<path d="" fill="#131314" transform="translate(0,0)"/>
<path d="" fill="#151415" transform="translate(0,0)"/>
<path d="" fill="#282828" transform="translate(0,0)"/>
<path d="" fill="#171512" transform="translate(0,0)"/>
<path d="" fill="#151212" transform="translate(0,0)"/>
<path d="" fill="#181813" transform="translate(0,0)"/>
<path d="" fill="#17171A" transform="translate(0,0)"/>
<path d="" fill="#151615" transform="translate(0,0)"/>
<path d="" fill="#181717" transform="translate(0,0)"/>
<path d="" fill="#161413" transform="translate(0,0)"/>
<path d="" fill="#171513" transform="translate(0,0)"/>
<path d="" fill="#111112" transform="translate(0,0)"/>
<path d="" fill="#1B1A1C" transform="translate(0,0)"/>
<path d="" fill="#161315" transform="translate(0,0)"/>
<path d="" fill="#151315" transform="translate(0,0)"/>
<path d="" fill="#161616" transform="translate(0,0)"/>
<path d="" fill="#131414" transform="translate(0,0)"/>
<path d="" fill="#252625" transform="translate(0,0)"/>
<path d="" fill="#121311" transform="translate(0,0)"/>
<path d="" fill="#201F21" transform="translate(0,0)"/>
<path d="" fill="#121312" transform="translate(0,0)"/>
<path d="" fill="#151114" transform="translate(0,0)"/>
<path d="" fill="#100F12" transform="translate(0,0)"/>
<path d="" fill="#161515" transform="translate(0,0)"/>
<path d="" fill="#121013" transform="translate(0,0)"/>
<path d="" fill="#161313" transform="translate(0,0)"/>
<path d="" fill="#151215" transform="translate(0,0)"/>
<path d="" fill="#272726" transform="translate(0,0)"/>
<path d="" fill="#2C2C2E" transform="translate(0,0)"/>
<path d="" fill="#111111" transform="translate(0,0)"/>
<path d="" fill="#252626" transform="translate(0,0)"/>
<path d="" fill="#151413" transform="translate(0,0)"/>
<path d="" fill="#141312" transform="translate(0,0)"/>
<path d="" fill="#141513" transform="translate(0,0)"/>
<path d="" fill="#272527" transform="translate(0,0)"/>
<path d="" fill="#1E1D1F" transform="translate(0,0)"/>
<path d="" fill="#121512" transform="translate(0,0)"/>
<path d="" fill="#282627" transform="translate(0,0)"/>
<path d="" fill="#120E0E" transform="translate(0,0)"/>
<path d="" fill="#110D0E" transform="translate(0,0)"/>
<path d="" fill="#171716" transform="translate(0,0)"/>
<path d="" fill="#141515" transform="translate(0,0)"/>
<path d="" fill="#10100F" transform="translate(0,0)"/>
<path d="" fill="#151313" transform="translate(0,0)"/>
<path d="" fill="#151515" transform="translate(0,0)"/>
<path d="" fill="#161414" transform="translate(0,0)"/>
<path d="" fill="#0F0D0E" transform="translate(0,0)"/>
<path d="" fill="#141414" transform="translate(0,0)"/>
<path d="" fill="#292828" transform="translate(0,0)"/>
<path d="" fill="#0F0E0B" transform="translate(0,0)"/>
<path d="" fill="#292828" transform="translate(0,0)"/>
<path d="" fill="#2F2D2E" transform="translate(0,0)"/>
<path d="" fill="#272727" transform="translate(0,0)"/>
<path d="" fill="#0F0E0E" transform="translate(0,0)"/>
<path d="" fill="#0E100F" transform="translate(0,0)"/>
<path d="" fill="#161616" transform="translate(0,0)"/>
<path d="" fill="#1A191A" transform="translate(0,0)"/>
<path d="" fill="#2E2D2D" transform="translate(0,0)"/>
<path d="" fill="#2B2929" transform="translate(0,0)"/>
<path d="" fill="#232123" transform="translate(0,0)"/>
<path d="" fill="#1E1E1C" transform="translate(0,0)"/>
<path d="" fill="#1E1C1C" transform="translate(0,0)"/>
<path d="" fill="#2B2A2A" transform="translate(0,0)"/>
<path d="" fill="#2A2927" transform="translate(0,0)"/>
<path d="" fill="#1F1F1E" transform="translate(0,0)"/>
<path d="" fill="#1E1C1C" transform="translate(0,0)"/>
<path d="" fill="#1E201E" transform="translate(0,0)"/>
<path d="" fill="#22211F" transform="translate(0,0)"/>
<path d="" fill="#2F2D2E" transform="translate(0,0)"/>
<path d="" fill="#292B2B" transform="translate(0,0)"/>
<path d="" fill="#252525" transform="translate(0,0)"/>
<path d="" fill="#1D1C1C" transform="translate(0,0)"/>
<path d="" fill="#171615" transform="translate(0,0)"/>
<path d="" fill="#11100E" transform="translate(0,0)"/>
<path d="" fill="#0E0E0F" transform="translate(0,0)"/>
<path d="" fill="#10110F" transform="translate(0,0)"/>
<path d="" fill="#11110F" transform="translate(0,0)"/>
<path d="" fill="#121313" transform="translate(0,0)"/>
<path d="" fill="#14110F" transform="translate(0,0)"/>
<path d="" fill="#262425" transform="translate(0,0)"/>
<path d="" fill="#2B2928" transform="translate(0,0)"/>
<path d="" fill="#151415" transform="translate(0,0)"/>
<path d="" fill="#111011" transform="translate(0,0)"/>
<path d="" fill="#121313" transform="translate(0,0)"/>
<path d="" fill="#131113" transform="translate(0,0)"/>
<path d="" fill="#120F10" transform="translate(0,0)"/>
<path d="" fill="#2B2A2A" transform="translate(0,0)"/>
<path d="" fill="#151313" transform="translate(0,0)"/>
<path d="" fill="#131312" transform="translate(0,0)"/>
<path d="" fill="#262525" transform="translate(0,0)"/>
<path d="" fill="#101010" transform="translate(0,0)"/>
<path d="" fill="#2E2D2F" transform="translate(0,0)"/>
<path d="" fill="#13110F" transform="translate(0,0)"/>
<path d="" fill="#252523" transform="translate(0,0)"/>
<path d="" fill="#2D2F2C" transform="translate(0,0)"/>
<path d="" fill="#151412" transform="translate(0,0)"/>
<path d="" fill="#141312" transform="translate(0,0)"/>
<path d="" fill="#141312" transform="translate(0,0)"/>
<path d="" fill="#282A29" transform="translate(0,0)"/>
<path d="" fill="#282827" transform="translate(0,0)"/>
<path d="" fill="#292829" transform="translate(0,0)"/>
<path d="" fill="#121112" transform="translate(0,0)"/>
<path d="" fill="#272627" transform="translate(0,0)"/>
<path d="" fill="#282728" transform="translate(0,0)"/>
<path d="" fill="#111015" transform="translate(0,0)"/>
<path d="" fill="#121310" transform="translate(0,0)"/>
<path d="" fill="#121111" transform="translate(0,0)"/>
<path d="" fill="#161214" transform="translate(0,0)"/>
<path d="" fill="#0E0F10" transform="translate(0,0)"/>
<path d="" fill="#1A1B19" transform="translate(0,0)"/>
<path d="" fill="#100F10" transform="translate(0,0)"/>
<path d="" fill="#121311" transform="translate(0,0)"/>
<path d="" fill="#101111" transform="translate(0,0)"/>
<path d="" fill="#121011" transform="translate(0,0)"/>
<path d="" fill="#111012" transform="translate(0,0)"/>
<path d="" fill="#191916" transform="translate(0,0)"/>
<path d="" fill="#131213" transform="translate(0,0)"/>
<path d="" fill="#141414" transform="translate(0,0)"/>
<path d="" fill="#160F12" transform="translate(0,0)"/>
<path d="" fill="#0E0E0E" transform="translate(0,0)"/>
<path d="" fill="#161514" transform="translate(0,0)"/>
<path d="" fill="#151213" transform="translate(0,0)"/>
<path d="" fill="#131312" transform="translate(0,0)"/>
<path d="" fill="#272825" transform="translate(0,0)"/>
<path d="" fill="#161311" transform="translate(0,0)"/>
<path d="" fill="#131312" transform="translate(0,0)"/>
<path d="" fill="#110F10" transform="translate(0,0)"/>
<path d="" fill="#10100F" transform="translate(0,0)"/>
<path d="" fill="#262728" transform="translate(0,0)"/>
<path d="" fill="#292828" transform="translate(0,0)"/>
<path d="" fill="#262728" transform="translate(0,0)"/>
<path d="" fill="#141414" transform="translate(0,0)"/>
<path d="" fill="#262526" transform="translate(0,0)"/>
<path d="" fill="#151213" transform="translate(0,0)"/>
<path d="" fill="#121414" transform="translate(0,0)"/>
<path d="" fill="#131114" transform="translate(0,0)"/>
<path d="" fill="#242524" transform="translate(0,0)"/>
<path d="" fill="#131513" transform="translate(0,0)"/>
<path d="" fill="#272728" transform="translate(0,0)"/>
<path d="" fill="#1A1B1A" transform="translate(0,0)"/>
<path d="" fill="#2A2A28" transform="translate(0,0)"/>
<path d="" fill="#282828" transform="translate(0,0)"/>
<path d="" fill="#2A2A28" transform="translate(0,0)"/>
<path d="" fill="#313230" transform="translate(0,0)"/>
<path d="" fill="#262628" transform="translate(0,0)"/>
<path d="" fill="#1F1E1E" transform="translate(0,0)"/>
<path d="" fill="#312F2E" transform="translate(0,0)"/>
<path d="" fill="#292926" transform="translate(0,0)"/>
<path d="" fill="#272627" transform="translate(0,0)"/>
<path d="" fill="#2A2A2A" transform="translate(0,0)"/>
</svg>
